<svg width="7" height="12" viewBox="0 0 7 12" fill="none" xmlns="http://www.w3.org/2000/svg">
<path d="M6.7079 5.28015C6.84859 5.42066 6.92773 5.6113 6.9279 5.81015L6.9279 6.19015C6.9256 6.38856 6.84678 6.57843 6.7079 6.72015L1.5679 11.8501C1.47402 11.9448 1.34622 11.998 1.2129 11.998C1.07958 11.998 0.951783 11.9448 0.8579 11.8501L0.1479 11.1401C0.0538355 11.048 0.000827742 10.9218 0.000827737 10.7901C0.000827731 10.6585 0.0538355 10.5323 0.1479 10.4401L4.5979 6.00015L0.147899 1.56015C0.0532428 1.46626 -4.65945e-07 1.33847 -4.71773e-07 1.20515C-4.776e-07 1.07183 0.0532428 0.944032 0.147899 0.850148L0.857899 0.150147C0.951783 0.0554914 1.07958 0.00224776 1.2129 0.00224776C1.34622 0.00224775 1.47402 0.0554914 1.5679 0.150147L6.7079 5.28015Z" fill="#333333"/>
</svg>
